<svg width="482" height="217" viewBox="0 0 482 217" fill="none" xmlns="http://www.w3.org/2000/svg">
<g opacity="0.1">
<path d="M100.507 107.858H51.6408L43.8073 130.997H10.4219L57.7957 0H94.7248L142.099 130.997H108.34L100.507 107.858ZM92.3002 83.2262L76.0737 35.2685L60.0338 83.2262H92.3002Z" fill="#39462C"/>
<path d="M188.41 0V130.997H156.517V0H188.41Z" fill="#39462C"/>
<path d="M334.434 0L287.992 130.997H248.079L201.638 0H235.583L268.036 98.9011L300.675 0H334.434Z" fill="#39462C"/>
<path d="M429.269 107.858H380.403L372.569 130.997H339.184L386.558 0H423.487L470.861 130.997H437.102L429.269 107.858ZM421.062 83.2262L404.836 35.2685L388.796 83.2262H421.062Z" fill="#39462C"/>
<path d="M0 179.203C0 171.983 1.62715 165.506 4.88144 159.773C8.13574 153.969 12.5573 149.439 18.1462 146.183C23.8059 142.927 30.0668 141.299 36.9292 141.299C44.9942 141.299 52.0333 143.246 58.0467 147.139C64.0601 151.032 68.4463 156.553 71.2054 163.702H59.6385C57.5869 159.242 54.6155 155.809 50.7245 153.403C46.9043 150.996 42.3058 149.793 36.9292 149.793C31.7647 149.793 27.1309 150.996 23.0277 153.403C18.9244 155.809 15.7055 159.242 13.3709 163.702C11.0363 168.09 9.869 173.257 9.869 179.203C9.869 185.078 11.0363 190.245 13.3709 194.704C15.7055 199.092 18.9244 202.49 23.0277 204.896C27.1309 207.303 31.7647 208.506 36.9292 208.506C42.3058 208.506 46.9043 207.338 50.7245 205.003C54.6155 202.596 57.5869 199.163 59.6385 194.704H71.2054C68.4463 201.782 64.0601 207.268 58.0467 211.161C52.0333 214.983 44.9942 216.894 36.9292 216.894C30.0668 216.894 23.8059 215.301 18.1462 212.116C12.5573 208.86 8.13574 204.365 4.88144 198.632C1.62715 192.899 0 186.422 0 179.203Z" fill="#39462C"/>
<path d="M142.566 142.255V216.257H132.909V182.706H95.237V216.257H85.5803V142.255H95.237V174.743H132.909V142.255H142.566Z" fill="#39462C"/>
<path d="M202.775 199.8H170.516L164.573 216.257H154.386L181.127 142.679H192.27L218.905 216.257H208.718L202.775 199.8ZM200.016 191.943L186.645 154.571L173.275 191.943H200.016Z" fill="#39462C"/>
<path d="M276.085 142.255V150.111H255.923V216.257H246.266V150.111H225.997V142.255H276.085Z" fill="#39462C"/>
<path d="M325.007 178.141C327.695 178.566 330.136 179.663 332.329 181.432C334.593 183.202 336.362 185.396 337.635 188.015C338.979 190.634 339.651 193.43 339.651 196.403C339.651 200.154 338.696 203.552 336.786 206.595C334.876 209.568 332.082 211.939 328.403 213.709C324.795 215.407 320.515 216.257 315.563 216.257H287.972V142.255H314.501C319.524 142.255 323.805 143.104 327.342 144.803C330.879 146.431 333.532 148.66 335.301 151.492C337.069 154.323 337.954 157.508 337.954 161.047C337.954 165.436 336.751 169.081 334.346 171.983C332.011 174.814 328.898 176.867 325.007 178.141ZM297.629 174.213H313.865C318.392 174.213 321.894 173.151 324.37 171.027C326.847 168.904 328.085 165.967 328.085 162.215C328.085 158.464 326.847 155.526 324.37 153.403C321.894 151.279 318.322 150.218 313.652 150.218H297.629V174.213ZM314.714 208.294C319.524 208.294 323.274 207.161 325.962 204.896C328.651 202.631 329.995 199.482 329.995 195.447C329.995 191.342 328.58 188.121 325.75 185.785C322.92 183.379 319.135 182.175 314.395 182.175H297.629V208.294H314.714Z" fill="#39462C"/>
<path d="M386.586 217C379.723 217 373.462 215.407 367.803 212.222C362.143 208.966 357.651 204.472 354.326 198.738C351.071 192.934 349.444 186.422 349.444 179.203C349.444 171.983 351.071 165.506 354.326 159.773C357.651 153.969 362.143 149.474 367.803 146.289C373.462 143.033 379.723 141.405 386.586 141.405C393.519 141.405 399.815 143.033 405.475 146.289C411.134 149.474 415.591 153.934 418.846 159.667C422.1 165.4 423.727 171.912 423.727 179.203C423.727 186.493 422.1 193.005 418.846 198.738C415.591 204.472 411.134 208.966 405.475 212.222C399.815 215.407 393.519 217 386.586 217ZM386.586 208.612C391.75 208.612 396.384 207.409 400.487 205.003C404.661 202.596 407.915 199.163 410.25 194.704C412.655 190.245 413.858 185.078 413.858 179.203C413.858 173.257 412.655 168.09 410.25 163.702C407.915 159.242 404.696 155.809 400.593 153.403C396.49 150.996 391.821 149.793 386.586 149.793C381.35 149.793 376.681 150.996 372.578 153.403C368.475 155.809 365.22 159.242 362.815 163.702C360.481 168.09 359.313 173.257 359.313 179.203C359.313 185.078 360.481 190.245 362.815 194.704C365.22 199.163 368.475 202.596 372.578 205.003C376.752 207.409 381.421 208.612 386.586 208.612Z" fill="#39462C"/>
<path d="M482 142.255V150.111H461.838V216.257H452.181V150.111H431.912V142.255H482Z" fill="#39462C"/>
</g>
</svg>
