<svg width="22" height="20" viewBox="0 0 22 20" fill="none" xmlns="http://www.w3.org/2000/svg">
<path d="M8.53359 19.2113C7.41641 18.9879 6.69023 17.9008 6.91367 16.7836L7.0125 16.2937C7.24024 15.1465 7.66133 14.0551 8.25 13.0625H2.0625C0.923828 13.0625 0 12.1387 0 11C0 10.2051 0.451172 9.51327 1.11289 9.16952C0.644531 8.7914 0.34375 8.21132 0.34375 7.56249C0.34375 6.55702 1.06562 5.71913 2.01523 5.53866C1.82617 5.22499 1.71875 4.85976 1.71875 4.46874C1.71875 3.55351 2.31602 2.77577 3.14102 2.50937C3.11094 2.36757 3.09375 2.21718 3.09375 2.06249C3.09375 0.923819 4.01758 -9.53674e-06 5.15625 -9.53674e-06H9.3457C10.1621 -9.53674e-06 10.957 0.240616 11.6359 0.691788L13.2902 1.79608C14.4375 2.56093 15.125 3.84999 15.125 5.22929V10.0074C15.125 11.2621 14.5535 12.4437 13.5781 13.2301L13.2602 13.4836C12.1215 14.3945 11.3438 15.675 11.0602 17.1016L10.9613 17.5914C10.7379 18.7086 9.65078 19.4348 8.53359 19.2113ZM20.625 12.375H17.875C17.1145 12.375 16.5 11.7605 16.5 11V1.37499C16.5 0.614443 17.1145 -9.53674e-06 17.875 -9.53674e-06H20.625C21.3855 -9.53674e-06 22 0.614443 22 1.37499V11C22 11.7605 21.3855 12.375 20.625 12.375Z" fill="#C3A67E"/>
</svg>
