<svg width="98" height="99" viewBox="0 0 98 99" fill="none" xmlns="http://www.w3.org/2000/svg">
<g filter="url(#filter0_d_1_78)">
<path d="M54.1937 13.6205C54.1322 13.6205 54.08 13.6078 54.0369 13.5823C53.9938 13.5569 53.96 13.5123 53.9354 13.4487L53.4004 12.1504L52.0535 11.5394C51.992 11.5139 51.949 11.4789 51.9244 11.4344C51.8998 11.3898 51.8875 11.3357 51.8875 11.2721C51.8875 11.2084 51.8998 11.1543 51.9244 11.1098C51.949 11.0652 51.992 11.0302 52.0535 11.0048L53.4004 10.4129L53.9354 9.17184C53.96 9.10819 53.9938 9.06364 54.0369 9.03819C54.08 9.01273 54.1322 9 54.1937 9C54.2552 9 54.3075 9.01273 54.3506 9.03819C54.3936 9.06364 54.4274 9.10819 54.452 9.17184L54.9871 10.4129L56.3339 11.0048C56.3954 11.0302 56.4385 11.0652 56.4631 11.1098C56.4877 11.1543 56.5 11.2084 56.5 11.2721C56.5 11.3357 56.4877 11.3898 56.4631 11.4344C56.4385 11.4789 56.3954 11.5139 56.3339 11.5394L54.9871 12.1504L54.452 13.4487C54.4274 13.5123 54.3936 13.5569 54.3506 13.5823C54.3075 13.6078 54.2552 13.6205 54.1937 13.6205ZM54.1937 25C54.1445 25 54.0953 24.9873 54.0461 24.9618C53.9969 24.9364 53.96 24.8918 53.9354 24.8282L53.4004 23.5871L52.072 22.9952C52.0105 22.9698 51.9674 22.9348 51.9428 22.8902C51.9182 22.8457 51.9059 22.7916 51.9059 22.7279C51.9059 22.6643 51.9182 22.6102 51.9428 22.5656C51.9674 22.5211 52.0105 22.4861 52.072 22.4606L53.4004 21.8687L53.9354 20.5513C53.96 20.4877 53.9938 20.4431 54.0369 20.4177C54.08 20.3922 54.1322 20.3795 54.1937 20.3795C54.2552 20.3795 54.3075 20.3922 54.3506 20.4177C54.3936 20.4431 54.4274 20.4877 54.452 20.5513L54.9871 21.8687L56.3155 22.4606C56.377 22.4861 56.42 22.5211 56.4446 22.5656C56.4692 22.6102 56.4815 22.6643 56.4815 22.7279C56.4815 22.7916 56.4692 22.8457 56.4446 22.8902C56.42 22.9348 56.377 22.9698 56.3155 22.9952L54.9871 23.5871L54.452 24.8282C54.4274 24.8918 54.3905 24.9364 54.3413 24.9618C54.2921 24.9873 54.2429 25 54.1937 25ZM46.0941 21.6969C45.9957 21.6969 45.9004 21.6683 45.8081 21.611C45.7159 21.5537 45.6451 21.4741 45.5959 21.3723L44.3967 18.7184L41.8137 17.5155C41.7153 17.4646 41.6384 17.3914 41.583 17.2959C41.5277 17.2005 41.5 17.1018 41.5 17C41.5 16.8982 41.5277 16.7995 41.583 16.7041C41.6384 16.6086 41.7153 16.5354 41.8137 16.4845L44.3967 15.2816L45.5959 12.6468C45.6451 12.5322 45.7159 12.4463 45.8081 12.389C45.9004 12.3317 45.9957 12.3031 46.0941 12.3031C46.1925 12.3031 46.2878 12.3317 46.3801 12.389C46.4723 12.4463 46.5431 12.5259 46.5923 12.6277L47.81 15.2816L50.3745 16.4845C50.4852 16.5354 50.5683 16.6086 50.6236 16.7041C50.679 16.7995 50.7066 16.8982 50.7066 17C50.7066 17.1018 50.679 17.2005 50.6236 17.2959C50.5683 17.3914 50.4852 17.4646 50.3745 17.5155L47.81 18.7184L46.5923 21.3723C46.5431 21.4869 46.4723 21.5696 46.3801 21.6205C46.2878 21.6714 46.1925 21.6969 46.0941 21.6969Z" fill="#435334"/>
</g>
<defs>
<filter id="filter0_d_1_78" x="0.549999" y="0.549999" width="96.9" height="97.9" filterUnits="userSpaceOnUse" color-interpolation-filters="sRGB">
<feFlood flood-opacity="0" result="BackgroundImageFix"/>
<feColorMatrix in="SourceAlpha" type="matrix" values="0 0 0 0 0 0 0 0 0 0 0 0 0 0 0 0 0 0 127 0" result="hardAlpha"/>
<feOffset dy="32.5"/>
<feGaussianBlur stdDeviation="20.475"/>
<feComposite in2="hardAlpha" operator="out"/>
<feColorMatrix type="matrix" values="0 0 0 0 0.262745 0 0 0 0 0.0941176 0 0 0 0 1 0 0 0 0.28 0"/>
<feBlend mode="normal" in2="BackgroundImageFix" result="effect1_dropShadow_1_78"/>
<feBlend mode="normal" in="SourceGraphic" in2="effect1_dropShadow_1_78" result="shape"/>
</filter>
</defs>
</svg>
