<svg width="22" height="20" viewBox="0 0 22 20" fill="none" xmlns="http://www.w3.org/2000/svg">
<path d="M13.4664 0.0403905C14.5836 0.263828 15.3098 1.35094 15.0863 2.46812L14.9875 2.95797C14.7598 4.10523 14.3387 5.19664 13.75 6.18922H19.9375C21.0762 6.18922 22 7.11305 22 8.25172C22 9.04664 21.5488 9.73844 20.8871 10.0822C21.3555 10.4603 21.6562 11.0404 21.6562 11.6892C21.6562 12.6947 20.9344 13.5326 19.9848 13.713C20.1738 14.0267 20.2812 14.392 20.2812 14.783C20.2812 15.6982 19.684 16.4759 18.859 16.7423C18.8891 16.8841 18.9062 17.0345 18.9062 17.1892C18.9062 18.3279 17.9824 19.2517 16.8438 19.2517H12.6543C11.8379 19.2517 11.043 19.0111 10.3641 18.5599L8.70977 17.4556C7.5625 16.6908 6.875 15.4017 6.875 14.0224V9.2443C6.875 7.98961 7.44648 6.80797 8.42188 6.02164L8.73984 5.76812C9.87852 4.85719 10.6562 3.57672 10.9398 2.15016L11.0387 1.66031C11.2621 0.543125 12.3492 -0.183047 13.4664 0.0403905ZM1.375 6.87672H4.125C4.88555 6.87672 5.5 7.49117 5.5 8.25172V17.8767C5.5 18.6373 4.88555 19.2517 4.125 19.2517H1.375C0.614453 19.2517 0 18.6373 0 17.8767V8.25172C0 7.49117 0.614453 6.87672 1.375 6.87672Z" fill="#435334"/>
</svg>
